<?xml version="1.0" encoding="utf-8"?>
<!-- Generator: Adobe Illustrator 19.1.0, SVG Export Plug-In . SVG Version: 6.00 Build 0)  -->
<svg version="1.1" id="Layer_1" xmlns="http://www.w3.org/2000/svg" xmlns:xlink="http://www.w3.org/1999/xlink" x="0px" y="0px"
	 viewBox="-272 243.8 414.5 74.2" style="enable-background:new -272 243.8 414.5 74.2;" xml:space="preserve">
<style type="text/css">
	.st0{fill:#FFFFFF;}
</style>
<g>
	<path class="st0" d="M-272.6,266.8c0-12.7,9.7-20.7,21.7-20.7c8.9,0,14.3,4.7,17.1,9.7l-8.6,4.5c-1.5-2.6-4.6-5.1-8.5-5.1
		c-6.5,0-11.2,5-11.2,11.6c0,6.5,4.6,11.6,11.2,11.6c2.9,0,5.9-1.2,7.4-2.4v-3.1h-9v-9.1h19.3v15.9c-4.3,4.7-10.1,7.8-17.7,7.8
		C-262.9,287.5-272.6,279.6-272.6,266.8z"/>
	<path class="st0" d="M-210.3,286.8v-2.9c-1.8,2.2-5.3,3.6-9,3.6c-4.4,0-10-3.1-10-9.5c0-7,5.5-9.4,10-9.4c3.8,0,7.3,1.3,9,3.4v-2.9
		c0-2.5-2.2-4.3-5.9-4.3c-2.9,0-5.8,1.1-8.1,3.1l-3.4-6.4c3.7-3.2,8.7-4.5,13.1-4.5c7,0,13.5,2.6,13.5,11.6v18.2H-210.3z
		 M-210.3,279.4v-2.6c-1-1.4-3.1-2-5.2-2c-2.4,0-4.6,1.1-4.6,3.4c0,2.3,2.2,3.4,4.6,3.4C-213.4,281.5-211.3,280.8-210.3,279.4z"/>
	<path class="st0" d="M-192.4,279v-13.2h-4.8v-8h4.8v-7.9h9.2v7.9h5.9v8h-5.9v10.6c0,1.7,1,2.9,2.5,2.9c1,0,2-0.4,2.3-0.7l1.8,7
		c-1.1,1.1-3.4,1.9-6.8,1.9C-189.2,287.5-192.4,284.6-192.4,279z"/>
	<path class="st0" d="M-174.6,272.3c0-8.2,5.9-15.2,15.7-15.2c10,0,15.8,7,15.8,15.2c0,8.2-5.9,15.2-15.8,15.2
		C-168.7,287.5-174.6,280.5-174.6,272.3z M-152.5,272.3c0-3.8-2.3-7-6.4-7c-4,0-6.2,3.2-6.2,7c0,3.9,2.3,7.1,6.2,7.1
		C-154.8,279.4-152.5,276.2-152.5,272.3z"/>
	<path class="st0" d="M-140.6,283l3.8-6.6c2.2,1.9,6.8,3.9,10.2,3.9c2.8,0,3.9-0.8,3.9-2c0-3.6-16.9,0.1-16.9-11.6
		c0-5.1,4.4-9.5,12.4-9.5c4.9,0,9,1.6,12.1,3.8l-3.5,6.5c-1.7-1.7-5-3.2-8.5-3.2c-2.2,0-3.6,0.8-3.6,2c0,3.2,16.8-0.1,16.8,11.8
		c0,5.5-4.9,9.5-13.1,9.5C-132.2,287.5-137.6,285.8-140.6,283z"/>
	<path class="st0" d="M-64.9,277.6c1.2-2,1.9-3.9,2.4-5.8c0.5-1.9,0.6-3.8,0.6-5.8c0-1.9-0.1-3.5-0.3-4.6s-0.5-2-0.9-2.6
		c-0.4-0.6-1-1-1.8-1.2c-0.7-0.2-1.7-0.3-2.8-0.3v-0.8h11.4v0.8c-1,0-1.9,0.1-2.5,0.4c-0.6,0.3-1.1,0.7-1.5,1.3
		c-0.3,0.6-0.6,1.4-0.7,2.3c-0.1,0.9-0.1,2.1-0.1,3.4c0,1.6-0.1,3.1-0.2,4.4c-0.2,1.3-0.4,2.5-0.7,3.5c-0.3,1.1-0.6,2.1-1.1,3
		c-0.4,0.9-0.9,1.9-1.4,2.8c1,1.9,2,3.4,2.8,4.5s1.7,1.7,2.8,1.7c0.6,0,1.1-0.2,1.5-0.5c0.4-0.4,0.7-0.8,0.9-1.4
		c0.2-0.6,0.3-1.2,0.4-1.8c0.1-0.7,0.1-1.3,0.1-2h0.8c0,1.7-0.2,3.1-0.7,4.2c-0.4,1.1-1,2-1.6,2.7c-0.7,0.7-1.4,1.2-2.2,1.4
		c-0.8,0.3-1.6,0.4-2.4,0.4c-0.8,0-1.6-0.1-2.2-0.3c-0.6-0.2-1.1-0.5-1.6-0.8c-0.5-0.4-0.9-0.8-1.3-1.4c-0.4-0.6-0.8-1.2-1.3-2
		c-0.5,0.5-1.1,1-1.8,1.5s-1.5,1-2.4,1.4c-0.9,0.4-1.9,0.8-3,1.1s-2.2,0.5-3.5,0.5c-2.5,0-4.6-0.5-6.4-1.5c-1.7-1-3.1-2.2-4.2-3.5
		c-1.1-1.4-1.8-2.8-2.2-4.4c-0.4-1.5-0.7-2.9-0.7-3.9c0-2.1,0.4-3.9,1.1-5.5c0.7-1.6,1.7-2.9,2.8-4.1c1.1-1.2,2.4-2.2,3.8-3.1
		c1.4-0.9,2.7-1.7,4-2.4c-0.4-0.9-0.9-1.9-1.3-3.1c-0.4-1.2-0.7-2.6-0.7-4.3c0-1.4,0.2-2.6,0.7-3.6c0.5-1.1,1.1-2,1.9-2.7
		c0.8-0.8,1.6-1.3,2.6-1.7s2-0.6,3-0.6c1.5,0,2.8,0.5,3.9,1.4c1.1,1,1.6,2.5,1.6,4.5c0,1.2-0.2,2.2-0.6,3.2
		c-0.4,0.9-0.9,1.7-1.4,2.4c-0.6,0.7-1.2,1.3-2,1.7c-0.7,0.5-1.4,0.9-2,1.3L-64.9,277.6z M-80.6,259.9c-2.1,1.1-3.7,2.3-5,3.8
		c-1.2,1.4-1.9,3.3-1.9,5.6c0,1.8,0.3,3.7,1,5.7c0.6,2,1.5,3.8,2.5,5.4s2.2,3,3.5,4c1.3,1.1,2.6,1.6,3.9,1.6c1.4,0,2.8-0.4,4-1
		c1.3-0.7,2.4-1.6,3.6-2.6L-80.6,259.9z M-78.5,248.9c0,1,0.3,2.3,0.9,3.7c0.6,1.4,1.2,2.9,2,4.3c0.7-0.4,1.4-0.8,2-1.3
		c0.7-0.4,1.2-1,1.7-1.6c0.5-0.6,0.9-1.3,1.2-2.1c0.3-0.8,0.5-1.7,0.5-2.8c0-1.4-0.3-2.6-1-3.6s-1.8-1.6-3.4-1.6c-1,0-2,0.5-2.7,1.4
		C-78.1,246.3-78.5,247.5-78.5,248.9z"/>
	<path class="st0" d="M-31.5,286.8v-40h20c9,0,13.9,6.1,13.9,13.3c0,7.2-4.9,13.3-13.9,13.3h-9.7v13.4H-31.5z M-8,260.1
		c0-2.8-2.2-4.3-5-4.3h-8.2v8.6h8.2C-10.3,264.4-8,262.8-8,260.1z"/>
	<path class="st0" d="M3.9,272.3c0-8.4,6.3-15.2,15.4-15.2c8.6,0,14.8,6.3,14.8,16.1v2.1H13.5c0.7,2.6,3.1,4.7,7.3,4.7
		c2,0,5.4-0.9,7.1-2.5l4,6.1c-2.9,2.6-7.7,3.8-12.1,3.8C10.7,287.5,3.9,281.7,3.9,272.3z M19.3,264.6c-4,0-5.6,2.4-5.9,4.5h11.9
		C25,267,23.5,264.6,19.3,264.6z"/>
	<path class="st0" d="M38.6,286.8v-29h9.2v3.5c1.9-2.3,5.6-4.3,9.1-4.3v8.9c-0.5-0.2-1.3-0.2-2.3-0.2c-2.4,0-5.6,1-6.8,2.6v18.5
		H38.6z"/>
	<path class="st0" d="M61.1,286.8v-29h9.2v3.5c1.9-2.3,5.6-4.3,9.1-4.3v8.9c-0.5-0.2-1.3-0.2-2.3-0.2c-2.4,0-5.6,1-6.8,2.6v18.5
		H61.1z"/>
	<path class="st0" d="M81.8,272.3c0-8.2,5.9-15.2,15.7-15.2c10,0,15.8,7,15.8,15.2c0,8.2-5.9,15.2-15.8,15.2
		C87.7,287.5,81.8,280.5,81.8,272.3z M103.9,272.3c0-3.8-2.3-7-6.4-7c-4,0-6.2,3.2-6.2,7c0,3.9,2.3,7.1,6.2,7.1
		C101.6,279.4,103.9,276.2,103.9,272.3z"/>
	<path class="st0" d="M115.7,283l3.8-6.6c2.2,1.9,6.8,3.9,10.2,3.9c2.8,0,3.9-0.8,3.9-2c0-3.6-16.9,0.1-16.9-11.6
		c0-5.1,4.4-9.5,12.4-9.5c4.9,0,9,1.6,12.1,3.8l-3.5,6.5c-1.7-1.7-5-3.2-8.5-3.2c-2.2,0-3.6,0.8-3.6,2c0,3.2,16.8-0.1,16.8,11.8
		c0,5.5-4.9,9.5-13.1,9.5C124.1,287.5,118.8,285.8,115.7,283z"/>
</g>
<g>
	<path class="st0" d="M-272,318v-14h4.8c4.4,0,7.2,3,7.2,7s-2.8,7-7.2,7H-272z M-261.8,311c0-3-1.9-5.5-5.4-5.5h-3v10.9h3
		C-263.8,316.4-261.8,314-261.8,311z"/>
	<path class="st0" d="M-257.3,318v-14h9.2v1.6h-7.4v4.5h7.3v1.6h-7.3v4.8h7.4v1.6h-9.2V318z"/>
	<path class="st0" d="M-239.9,318v-14h1.7v14H-239.9z"/>
	<path class="st0" d="M-225,318l-8.2-11.2V318h-1.7v-14h1.8l8.1,10.9V304h1.7v14H-225z"/>
	<path class="st0" d="M-216.6,318v-12.5h-4.4v-1.6h10.6v1.6h-4.5V318H-216.6z"/>
	<path class="st0" d="M-208.1,318v-14h9.2v1.6h-7.4v4.5h7.3v1.6h-7.3v4.8h7.4v1.6h-9.2V318z"/>
	<path class="st0" d="M-188,318l-3.5-5.6h-2.8v5.6h-1.7v-14h5.6c2.6,0,4.4,1.6,4.4,4.2c0,2.5-1.7,3.9-3.7,4.1l3.8,5.7
		C-185.9,318-188,318-188,318z M-187.9,308.2c0-1.6-1.2-2.7-2.8-2.7h-3.7v5.4h3.7C-189,310.9-187.9,309.8-187.9,308.2z"/>
	<path class="st0" d="M-173.4,318l-8.2-11.2V318h-1.7v-14h1.8l8.1,10.9V304h1.7v14H-173.4z"/>
	<path class="st0" d="M-168.5,318v-14h9.2v1.6h-7.4v4.5h7.3v1.6h-7.3v4.8h7.4v1.6h-9.2V318z"/>
	<path class="st0" d="M-153,318v-12.5h-4.4v-1.6h10.6v1.6h-4.5V318H-153z"/>
</g>
</svg>
